<svg xmlns="http://www.w3.org/2000/svg" viewBox="0 0 512 512" fill="none">
  <defs>
    <!-- Left Ivory Segment Gradient -->
    <linearGradient id="ivoryGrad" x1="246" y1="106" x2="246" y2="406" gradientUnits="userSpaceOnUse">
      <stop offset="0%" stop-color="#F5F2EB" />
      <stop offset="100%" stop-color="#DCD8CD" />
    </linearGradient>
    <!-- Right Gold Segment Gradient -->
    <linearGradient id="goldGrad" x1="266" y1="106" x2="266" y2="406" gradientUnits="userSpaceOnUse">
      <stop offset="0%" stop-color="#FFD066" />
      <stop offset="100%" stop-color="#D47A1F" />
    </linearGradient>
  </defs>

  <!-- Solid Dark Background matching the website -->
  <rect width="512" height="512" fill="#080806" rx="96" />

  <!-- Left Ivory Segment (C-shape) -->
  <path d="M 246 106 A 150 150 0 0 0 246 406 L 246 356 A 100 100 0 0 1 246 156 Z" fill="url(#ivoryGrad)" />

  <!-- Right Gold Segment (D-shape) -->
  <path d="M 266 106 L 266 156 A 100 100 0 0 1 266 356 L 266 406 A 150 150 0 0 0 266 106 Z" fill="url(#goldGrad)" />

  <!-- Center Rounded Play Triangle -->
  <path d="M 235 222 C 235 215 241 215 245 218 L 289 252 C 293 255 293 257 289 260 L 245 294 C 241 297 235 297 235 290 Z" fill="url(#goldGrad)" />

  <!-- Top-Left Sparkles -->
  <!-- Large Gold Sparkle -->
  <path d="M 135 130 Q 160 130 160 105 Q 160 130 185 130 Q 160 130 160 155 Q 160 130 135 130 Z" fill="#FFD066" />
  <!-- Small Blue/Violet Sparkle -->
  <path d="M 92 185 Q 110 185 110 167 Q 110 185 128 185 Q 110 185 110 203 Q 110 185 92 185 Z" fill="#ADC6FF" />
  <!-- Gold Dot -->
  <circle cx="120" cy="230" r="5.5" fill="#FFD066" />
</svg>